<?xml version="1.0" encoding="utf-8"?>
<!-- Generator: Adobe Illustrator 15.0.0, SVG Export Plug-In . SVG Version: 6.00 Build 0)  -->
<!DOCTYPE svg PUBLIC "-//W3C//DTD SVG 1.0//EN" "http://www.w3.org/TR/2001/REC-SVG-20010904/DTD/svg10.dtd">
<svg version="1.0" id="Layer_1" xmlns="http://www.w3.org/2000/svg" xmlns:xlink="http://www.w3.org/1999/xlink" x="0px" y="0px"
	 width="1700px" height="916px" viewBox="0 0 1700 916" enable-background="new 0 0 1700 916" xml:space="preserve">
<path fill="#B3B3B3" stroke="#000000" stroke-width="4.5" stroke-miterlimit="10" enable-background="new    " d="M1532.964,692.849
	c17.272,3.536,28.474-0.587,32.53-2.082l8.744-635.585c-6.928-9.486-25.231-15.167-37.951-2.105
	C1536.115,79.016,1532.964,692.849,1532.964,692.849z"/>
<path fill="#B3B3B3" stroke="#000000" stroke-width="4.5" stroke-miterlimit="10" enable-background="new    " d="M491.203,803.566
	c19.704,4.033,32.481-0.671,37.109-2.374l9.974-747.036c-7.902-10.821-28.783-17.301-43.291-2.401
	C494.797,81.346,491.203,803.566,491.203,803.566z"/>
<rect x="400.609" y="53.424" fill="#C1272D" stroke="#000000" stroke-width="9" width="1257.889" height="192"/>
<text transform="matrix(1 0 0 1 444.9443 203.9585)" fill="#FFFFFF" font-family="'Helvetica-Bold'" font-size="147.1313">INTERNATIONAL</text>
<g>
	<path fill="#784421" stroke="#000000" stroke-width="9" stroke-linecap="round" stroke-linejoin="round" d="M1602.542,600.759
		c0.041,132.715-85.157,165.731-217.871,165.731c-132.716,0-217.912-33.016-217.872-165.731
		c-0.04-132.714,85.156-314.913,217.872-314.913C1517.383,285.846,1602.583,468.044,1602.542,600.759z"/>
	<g transform="translate(14.16099,-383.24638)">
		<path fill="#B3B3B3" stroke="#000000" stroke-width="4.5" stroke-miterlimit="10" enable-background="new    " d="
			M1518.803,1183.153c17.272,2.069,28.474-0.343,32.53-1.218l8.744-371.881c-6.928-5.55-25.231-8.874-37.951-1.232
			C1521.954,823.999,1518.803,1183.153,1518.803,1183.153z"/>
		<g>
			<path fill="#502D16" stroke="#000000" stroke-width="9" stroke-linecap="round" stroke-linejoin="round" d="M1352.346,1161.16
				c0,19.94-32.164,20.577-71.798,20.577s-71.797,1.521-71.797-20.577c0-38.857,32.163-70.393,71.797-70.393
				C1320.18,1090.767,1352.346,1122.303,1352.346,1161.16z"/>
			<path fill-opacity="0.3137" stroke="#000000" stroke-width="9" stroke-linejoin="round" d="M1252.933,1180.419
				c0-35.9,20.712-57.993,20.712-57.993s-8.285,30.377-6.904,57.993H1252.933L1252.933,1180.419z"/>
		</g>
		<g>
			<path fill="#502D16" stroke="#000000" stroke-width="9" stroke-linecap="round" stroke-linejoin="round" d="M1558.179,868.811
				c-19.938,0.02-20.547,32.186-20.508,71.818c0.038,39.633-1.45,71.801,20.646,71.78c38.857-0.037,70.361-32.235,70.324-71.868
				C1628.603,900.91,1597.036,868.774,1558.179,868.811z"/>
			<path fill-opacity="0.3137" stroke="#000000" stroke-width="9" stroke-linejoin="round" d="M1539.017,968.244
				c35.898-0.035,57.97-20.766,57.97-20.766s-30.368,8.312-57.982,6.958L1539.017,968.244L1539.017,968.244z"/>
		</g>
		<g>
			<path fill="#502D16" stroke="#000000" stroke-width="9" stroke-linecap="round" stroke-linejoin="round" d="M1159.588,911.008
				c18.307-7.902,31.639,21.375,47.348,57.763c15.708,36.388,29.851,65.316,9.562,74.074c-35.674,15.399-77.374-1.633-93.082-38.021
				C1107.707,968.437,1123.913,926.407,1159.588,911.008z"/>
			<path fill-opacity="0.3137" stroke="#000000" stroke-width="9" stroke-linejoin="round" d="M1211.677,978.002
				c-32.961,14.228-61.45,3.968-61.45,3.968s31.171-4.433,55.979-16.644L1211.677,978.002L1211.677,978.002z"/>
		</g>
		<g>
			<path fill="#784421" stroke="#000000" stroke-width="9" stroke-linecap="round" stroke-linejoin="round" d="M1435.269,663.992
				c-57.473-18.228-103.985-10.693-139.031,13.529c-43.922-20.385-98.674,16.407-98.674,16.407s29.71,30.049,59.755,23.529
				c-10.149,14.96-18.398,32.009-24.705,50.574c-29.063,85.58,53.67,191.157,102.393,207.704
				c50.61,17.188,178.638-16.811,207.702-102.39c6.307-18.566,10.145-37.112,11.205-55.159
				c19.861,23.469,61.666,17.708,61.666,17.708s-20.976-62.492-68.215-73.085c-13.421-41.735-47.252-76.795-107.064-97.109
				C1438.607,665.125,1436.941,664.523,1435.269,663.992L1435.269,663.992z"/>
			<path fill="#502D16" stroke="#000000" stroke-width="9" d="M1449.36,704.262c64.413-79.099,111.854,45.156,140.685,35.95
				c29.879-9.542,26.726-65.047,38.911-73.649c12.187-8.601,23.641,84.604-2.351,109.23c-25.45,24.111-90.148-0.651-132.993-15.535
				C1469.421,751.866,1438.88,718.24,1449.36,704.262L1449.36,704.262z"/>
			<path d="M1409.789,954.41c-13.695,12.015-31.904,13.656-40.664,3.667c-8.758-9.989-4.745-27.824,8.956-39.833
				c13.703-12.009,31.905-13.657,40.664-3.668C1427.503,924.566,1423.49,942.403,1409.789,954.41L1409.789,954.41z"/>
			<path d="M1286.666,912.594c3.55,17.872,16.989,30.263,30.021,27.674c13.028-2.591,20.71-19.179,17.154-37.048
				c-3.557-17.871-16.989-30.263-30.02-27.674C1290.792,878.137,1283.11,894.726,1286.666,912.594L1286.666,912.594z"/>
			<g transform="matrix(-1,0,0,1,194.51132,-2.17326)">
				<g transform="matrix(.51859,-.85502,.85502,.51859,-363.6989,348.26898)">
					<path fill="#FFFFFF" stroke="#000000" stroke-width="9" stroke-linecap="round" stroke-linejoin="round" d="M-725.968-461.382
						c8.839,25.998-5.077,54.235-31.076,63.066c-25.999,8.831-54.236-5.095-63.056-31.096c-8.823-26.001,5.076-54.237,31.077-63.064
						C-763.023-501.306-734.791-487.384-725.968-461.382L-725.968-461.382z"/>
					<path fill="#070707" stroke="#FFFFFF" stroke-width="4" d="M-769.214-446.957c3.828,11.263-1.882,23.388-12.752,27.08
						c-10.871,3.693-22.785-2.448-26.608-13.713c-3.821-11.266,1.882-23.388,12.752-27.083
						C-784.95-464.363-773.036-458.223-769.214-446.957L-769.214-446.957z"/>
				</g>
				<g transform="matrix(-.51421,-.85767,-.85767,.51421,462.60151,219.61989)">
					<path fill="#FFFFFF" stroke="#000000" stroke-width="9" stroke-linecap="round" stroke-linejoin="round" d="M417.535,1807.677
						c-8.822,26.003-37.057,39.925-63.057,31.097c-25.997-8.83-39.913-37.07-31.077-63.067
						c8.839-25.997,37.056-39.926,63.057-31.096C412.457,1753.441,426.372,1781.681,417.535,1807.677z"/>
					<path fill="#070707" stroke="#FFFFFF" stroke-width="4" d="M374.472,1792.7c-3.824,11.264-15.737,17.404-26.608,13.711
						c-10.872-3.69-16.582-15.817-12.752-27.078c3.83-11.264,15.735-17.408,26.606-13.715
						C372.59,1769.31,378.3,1781.436,374.472,1792.7z"/>
				</g>
			</g>
		</g>
		<g>
			<path fill="#502D16" stroke="#000000" stroke-width="9" stroke-linecap="round" stroke-linejoin="round" d="M1400.234,1165.944
				c0,19.94,32.165,20.578,71.797,20.578s71.8,1.521,71.8-20.578c0-38.856-32.168-70.392-71.8-70.392
				S1400.234,1127.088,1400.234,1165.944z"/>
			<path fill-opacity="0.3137" stroke="#000000" stroke-width="9" stroke-linejoin="round" d="M1489.101,1183.85
				c0-35.9-20.71-57.992-20.71-57.992s8.283,30.376,6.9,57.992H1489.101L1489.101,1183.85z"/>
		</g>
	</g>
</g>
<g>
	<g>
		<g transform="translate(-168.40845,-443.49693)">
			<path d="M331.908,696.712c24.395,45.872-5.85,102.696-18.636,147.34c-12.787,44.649-118.778,93.502-112.38,216.611
				c99.168,238.325,87.971-137.557,153.727-57.256c0.951,4.316,2.08,8.605,3.257,12.922c4.345,21.547,7.241,140.661,45.444,167.462
				s59.341,22.886,70.523,18.373c3.334-1.35-5.232-65.671-2.789-66.884c-8.331-14.329-76.113-42.476-87.876-104.717
				c-28.127-89.139,7.875-183.735,13.346-220.333c0.725-4.846,23.181-76.991,23.207-70.71c7.081-7.842,30.529-51.629,32.92-43.126
				c1.698,6.014,80.571,25.735,113.118,37.474c63.998,22.679,41.462,49.404,55.974,72.073c9.296,14.537,83.947,38.034,94.194,56.365
				c3.232,7.511,5.828,15.509,8.09,23.796c0.069,0.25,0.135,0.501,0.206,0.752c4.194,9.593,7.771,19.699,10.624,30.149
				c28.602,104.845-25,211.038-119.726,236.882c-14.106,3.848-60.746,14.443-74.818,14.456c5.038,11.713,8.652,23.11,10.025,33.823
				c20.804-1.112,74.623-13.581,96.072-19.434c111.528-30.427,153.677-144.529,115.276-276.572
				c-3.66-12.589-8.115-24.623-13.327-36.179c10.96-9.957,22.985-18.624,26.368-35.829
				c11.954-69.691-217.363-161.181-253.378-235.417c-29.022-59.823-65.872-63.963-125.887-40.803
				C319.726,593.818,315.516,633.813,331.908,696.712z"/>
			<g>
				<g>
					
						<ellipse transform="matrix(0.9223 -0.3866 0.3866 0.9223 -234.3256 209.8716)" fill="#FFFFFF" stroke="#000000" stroke-miterlimit="10" cx="404.664" cy="687.565" rx="31.661" ry="36.981"/>
					
						<ellipse transform="matrix(0.9222 -0.3866 0.3866 0.9222 -237.9899 212.6155)" cx="409.593" cy="697.979" rx="19.709" ry="21.628"/>
				</g>
				<g>
					
						<ellipse transform="matrix(0.9587 -0.2845 0.2845 0.9587 -166.6624 164.1304)" fill="#FFFFFF" stroke="#000000" stroke-miterlimit="10" cx="481.682" cy="655.795" rx="31.662" ry="36.98"/>
					
						<ellipse transform="matrix(0.9587 -0.2845 0.2845 0.9587 -169.6119 165.6649)" cx="485.456" cy="666.681" rx="19.708" ry="21.627"/>
				</g>
			</g>
			<g>
				<path fill="#FBB03B" stroke="#000000" stroke-width="4.5" stroke-miterlimit="10" d="M493.64,690.535
					c7.423,1.72,41.819-5.129,45.551,10.941c2.796,12.06-8.705,24.905-23.16,44.844c-11.507,15.874-17.904,27.54-40.085,32.158
					c-21.392,4.463-37.542-6.429-51.243-6.715c-22.49-0.471-31.726-0.91-35.376-13.634c-4.548-15.855,23.477-32.115,31.738-41.693
					c8.563-9.926,20.698-26.143,31.971-29.502C464.312,683.572,479.171,687.013,493.64,690.535L493.64,690.535z"/>
				<path d="M475.649,735.455c44.19-20.815,54.36-42.277,60.169-37.463c8.319,6.883-18.833,31.833-54.75,46.343
					c-42.624,17.225-92.408,25.452-92.373,13.738C388.714,752.822,422.017,755.409,475.649,735.455L475.649,735.455z"/>
			</g>
			<path fill="#FBB03B" stroke="#000000" stroke-width="9" stroke-miterlimit="10" d="M392.302,1267.321
				c11.834-19.312,87.597-95.264,112.903-104.984c25.305-9.721,48.423-31.473,33.877,16.606
				c-10.717,31.729-21.664,58.238-50.648,87.486c-21.966,21.372-47.475,78.247-48.806,25.172
				c-19.292,4.022-40.293,38.014-32.563,1.491C416.633,1250.082,359.724,1319.792,392.302,1267.321z"/>
			<path fill="#FBB03B" stroke="#000000" stroke-width="9" stroke-miterlimit="10" d="M858.587,1232.093
				c-14.47-17.425-100.299-81.782-126.734-87.791c-26.434-6.008-52.42-24.237-31.159,21.273
				c15.138,29.874,29.756,54.548,62.62,79.359c24.792,18.017,58.159,70.667,51.899,17.946c19.668,1.228,45.307,31.872,32.442-3.173
				C832.044,1218.504,898.322,1279.375,858.587,1232.093z"/>
		</g>
	</g>
</g>
<path d="M476.772,272.694c23.218-26.486,113.406,47.143,102.211,89.268c-11.194,42.125-122.542-23.199-122.542-23.199
	S429.881,291.486,476.772,272.694z"/>
<g>
	<g id="g4249_2_" transform="translate(2.4507 993.02)">
		<g id="rect3004-1_2_">
			<path fill="#999999" d="M422.839-276.511c-0.474,0-49.572-1.194-98.601-27.793c-27.049-14.674-48.68-34.224-64.292-58.107
				c-19.423-29.715-29.617-66.385-30.299-108.992c0-71.807,32.459-117.947,59.688-143.996
				c35.402-33.869,84.087-54.178,133.573-55.726h839.013c5.614,0,10.182,4.394,10.182,9.794v375.02
				c0,5.404-4.567,9.801-10.182,9.801H422.839z"/>
			<path d="M1261.922-666.626c3.133,0,5.682,2.375,5.682,5.294v375.02c0,2.923-2.549,5.301-5.682,5.301H422.839
				c-0.462,0-48.387-1.171-96.455-27.248c-26.386-14.315-47.472-33.363-62.67-56.615c-18.941-28.976-28.888-64.815-29.565-106.529
				c0.009-28.517,5.389-55.425,15.989-79.977c9.904-22.939,24.139-43.385,42.31-60.768c17.425-16.67,37.768-29.896,60.461-39.307
				c22.439-9.306,46.014-14.41,70.071-15.17H1261.922 M1261.922-675.626H422.839c-100.715,3.114-197.69,80.719-197.69,204.294
				c3.042,190.194,189.578,199.32,197.69,199.32h839.083c8.111,0,14.682-6.405,14.682-14.301v-375.02
				C1276.604-669.225,1270.034-675.626,1261.922-675.626L1261.922-675.626z"/>
		</g>
		<g id="path3826-4_2_">
			<path fill="#4D4D4D" d="M261.955-227.903l-10.436-11.038l-1.624-138.562l20.267,14.368
				c35.164,56.207,79.261,79.156,151.959,79.156c1.057,0,2.115-0.005,3.184-0.014c73-0.628,123.215-26.083,153.409-77.789
				l693.445,0.345l-0.09,121.412l-13.748,12.122H261.955z"/>
			<path d="M254.499-368.724l12.329,8.741c36.021,57.156,81.15,80.504,155.294,80.504c1.069,0,2.141-0.005,3.223-0.014
				c73.68-0.634,124.75-26.09,155.932-77.788l686.38,0.342l-0.084,114.881l-10.951,9.655H263.893l-7.895-8.351L254.499-368.724
				 M245.292-386.283l1.748,149.154l12.977,13.726h1000.005l16.547-14.589l0.094-127.942l-700.553-0.349
				c-29.718,52.675-79.076,77.173-150.843,77.79c-1.056,0.009-2.102,0.014-3.146,0.014c-69.912,0-113.014-20.449-148.619-77.804
				L245.292-386.283L245.292-386.283z"/>
		</g>
		<g id="g3845-4_2_" transform="translate(0 -89.488)">
			<path id="path3843-04_2_" fill="none" d="M568.768-380.564c0,80.716-65.435,146.156-146.155,146.156
				c-80.735,0-146.174-65.44-146.174-146.156c0-80.732,65.438-146.176,146.174-146.176
				C503.333-526.74,568.768-461.297,568.768-380.564z"/>
			<path id="path4-7_2_" d="M422.389-537.125c-42.885,0-80.636,15.869-109.805,45.463c-30.027,30.453-46.331,69.918-46.331,111.088
				c0,41.608,15.869,80.211,45.906,110.237c30.019,30.029,69.046,46.327,110.229,46.327c41.171,0,81.063-16.298,111.95-46.752
				c29.166-28.738,44.604-66.916,44.604-109.812c0-42.459-15.438-81.062-45.037-110.662
				C503.878-521.266,465.272-537.125,422.389-537.125L422.389-537.125z M422.814-508.823c35.173,0,66.49,13.293,90.936,37.75
				c24.02,24.021,36.89,55.755,36.89,90.499c0,35.174-12.439,66.056-36.464,89.648c-25.306,24.873-57.903,38.178-91.361,38.178
				c-33.874,0-65.618-13.295-90.074-37.752c-24.45-24.455-38.173-56.615-38.173-90.074c0-33.881,13.723-66.053,38.173-90.935
				C356.768-495.956,387.643-508.823,422.814-508.823L422.814-508.823z"/>
			<path id="c-1_4_" fill="#FFFFFF" d="M420.795-406.594c-8.839-16.128-23.928-22.545-41.435-22.545
				c-25.507,0-45.787,18.033-45.787,48.556c0,31.042,19.073,48.558,46.638,48.558c17.704,0,32.796-9.715,41.112-24.447
				l-19.426-9.881c-4.34,10.396-10.934,13.525-19.25,13.525c-14.394,0-20.99-11.973-20.99-27.755
				c0-15.772,5.562-27.743,20.99-27.743c4.16,0,12.485,2.25,17.346,12.664L420.795-406.594L420.795-406.594z"/>
			<g id="use7-79_2_" transform="translate(9.9249 .0000029296)">
				<path id="c-1_1_" fill="#FFFFFF" d="M511.108-406.594c-8.838-16.128-23.927-22.545-41.441-22.545
					c-25.49,0-45.788,18.033-45.788,48.556c0,31.042,19.082,48.558,46.658,48.558c17.685,0,32.772-9.715,41.089-24.447
					l-19.404-9.881c-4.351,10.396-10.936,13.525-19.251,13.525c-14.398,0-20.988-11.973-20.988-27.755
					c0-15.772,5.54-27.743,20.988-27.743c4.161,0,12.478,2.25,17.329,12.664L511.108-406.594L511.108-406.594z"/>
			</g>
			<g>
				<path d="M423.36-493.192c30.595,0,59.359,11.915,80.994,33.549c21.634,21.635,33.549,50.399,33.549,80.994
					s-11.915,59.359-33.549,80.994c-21.635,21.634-50.399,33.549-80.994,33.549s-59.359-11.915-80.994-33.549
					c-21.634-21.635-33.549-50.399-33.549-80.994s11.915-59.359,33.549-80.994C364.001-481.278,392.765-493.192,423.36-493.192
					 M423.36-534.232c-85.926,0-155.583,69.657-155.583,155.583s69.657,155.583,155.583,155.583s155.583-69.657,155.583-155.583
					S509.286-534.232,423.36-534.232L423.36-534.232z"/>
			</g>
		</g>
	</g>
	<text transform="matrix(1 0 0 1 594.2979 603.8987)" font-family="'Helvetica-Bold'" font-size="316.9001">PEN</text>
	
		<text transform="matrix(1 0 0 1 607.8457 742.8425)" fill="#FFFFFF" font-family="'Helvetica-Bold'" font-size="117.8307" letter-spacing="8">PODCAST</text>
</g>
<path fill="#502D16" stroke="#000000" stroke-width="9" d="M1448.473,316.316c-3.207-111.924-127.57-35.458-146.518-62.745
	c-19.631-28.28,20.217-74.496,15.357-90.132c-4.861-15.634-77.137,57.856-70.971,96.67c6.041,38.004,78.922,59.694,126.172,75.377
	C1399.186,344.351,1448.252,335.491,1448.473,316.316z"/>
</svg>
